# xmcd
#
# Track frame offsets:
#	150
#	12260
#	26044
#	39331
#	50146
#	64247
#	104944
#	115886
#	132285
#	142224
#	158333
#	169312
#	177361
#
# Disc length: 2584 seconds
#
# Revision: 1
# Processed by: cddbd v1.5.2PL0 Copyright (c) Steve Scherf et al.
# Submitted via: audiograbber 1.83.01
#
DISCID=be0a160d
DTITLE=Hammercult - Anthems of the damned
DYEAR=2012
DGENRE=Metal
TTITLE0=Above the Ruins
TTITLE1=Let the Angels Burn
TTITLE2=Riding Through Hell
TTITLE3=Diabolic Overkill
TTITLE4=We are Hammercult
TTITLE5=Black Horseman
TTITLE6=Stealer Of Souls
TTITLE7=Hell's Unleashed
TTITLE8=Devil Chainsaw Fuck
TTITLE9=Hellbeant
TTITLE10=Into The Death Gate
TTITLE11=The Damned
TTITLE12=Santa Satan
EXTD=
EXTT0=
EXTT1=
EXTT2=
EXTT3=
EXTT4=
EXTT5=
EXTT6=
EXTT7=
EXTT8=
EXTT9=
EXTT10=
EXTT11=
EXTT12=
PLAYORDER=
